<?xml version="1.0" encoding="iso-8859-1"?>
<!-- Uploaded to: SVG Repo, www.svgrepo.com, Transformed by: SVG Repo Mixer Tools -->
<svg version="1.1" id="Layer_1" xmlns="http://www.w3.org/2000/svg" xmlns:xlink="http://www.w3.org/1999/xlink" 
	 viewBox="0 0 512 512" xml:space="preserve">
<path style="fill:#006654;" d="M510.358,227.023C495.964,99.285,387.586,0,256,0C114.616,0,0,114.616,0,256
	c0,131.585,99.285,239.963,227.023,254.358L510.358,227.023z"/>
<path style="fill:#383838;" d="M512,256c0-9.799-0.57-19.464-1.642-28.976L397.667,114.333L114.333,397.667l112.691,112.691
	C236.536,511.43,246.201,512,256,512C397.385,512,512,397.385,512,256z"/>
<path style="fill:#2DB37F;" d="M256,55.652L142.76,256L256,456.348c110.649,0,200.348-89.699,200.348-200.348
	S366.649,55.652,256,55.652z"/>
<path style="fill:#85DC79;" d="M55.652,256c0,110.649,89.699,200.348,200.348,200.348V55.652
	C145.351,55.652,55.652,145.351,55.652,256z"/>
<path style="fill:#008D75;" d="M256,89.043L161.633,256L256,422.957c92.208,0,166.957-74.749,166.957-166.957
	S348.208,89.043,256,89.043z"/>
<path style="fill:#5AC779;" d="M89.043,256c0,92.208,74.749,166.957,166.957,166.957V89.043
	C163.792,89.043,89.043,163.792,89.043,256z"/>
<circle style="fill:#383838;" cx="256" cy="256" r="133.565"/>
<path style="fill:#FFD652;" d="M256,144.696L193.089,256L256,367.304c61.471,0,111.304-49.833,111.304-111.304
	S317.472,144.696,256,144.696z"/>
<path style="fill:#FBE287;" d="M144.696,256c0,61.471,49.833,111.304,111.304,111.304V144.696
	C194.529,144.696,144.696,194.529,144.696,256z"/>
<path style="fill:#FDBA4C;" d="M256,166.957L205.672,256L256,345.043c49.178,0,89.043-39.866,89.043-89.043
	S305.178,166.957,256,166.957z"/>
<path style="fill:#FFD652;" d="M166.957,256c0,49.178,39.866,89.043,89.043,89.043V166.957
	C206.822,166.957,166.957,206.822,166.957,256z"/>
<path style="fill:#F7EDBC;" d="M256,189.217L218.253,256L256,322.783c36.883,0,66.783-29.9,66.783-66.783
	S292.883,189.217,256,189.217z"/>
<path style="fill:#FFFFFF;" d="M189.217,256c0,36.883,29.9,66.783,66.783,66.783V189.217
	C219.117,189.217,189.217,219.117,189.217,256z"/>
<polygon style="fill:#FFD652;" points="272.696,288.57 256,288.57 245.691,256 256,221.787 272.696,221.787 "/>
<polygon style="fill:#85DC79;" points="256,33.391 311.652,89.043 275.942,105.739 256,89.043 244.87,72.348 256,55.657 "/>
<polygon style="fill:#5AC779;" points="256,144.696 311.652,89.043 256,89.043 244.87,105.742 256,122.438 "/>
<polygon style="fill:#2DB37F;" points="256,478.609 200.348,422.957 236.058,406.261 256,422.957 267.13,439.652 256,456.343 "/>
<polygon style="fill:#008D75;" points="256,367.304 200.348,422.957 256,422.957 267.13,406.258 256,389.562 "/>
<rect x="239.304" y="221.785" style="fill:#FBE287;" width="16.696" height="66.783"/>
</svg>